# xmcd
#
# Track frame offsets:
# 150
# 4419
# 18245
# 33726
# 43211
# 56684
# 66557
# 83569
# 95158
# 108843
# 124103
# 142288
# 157773
# 174164
# 190909
# 201641
# 212733
# 225520
# 240851
# 255967
# 272816
#
# Disc length: 3680 seconds
#
#
# Revision: 0
# Processed by: cddbd v1.5.2PL0 Copyright (c) Steve Scherf et al.
# Submitted via: FreeRIP 2.942 
#
DISCID=270e5e15
DTITLE=Die Beleidiger - Die Erde Ist Eine Scheibe
DYEAR=2010
DGENRE=Hip-Hop
TTITLE0=Intro
TTITLE1=Zunge
TTITLE2=Blutgrueneaugen
TTITLE3=Freiheitstatue
TTITLE4=StrichundPunkt
TTITLE5=FunkyRhyminMaster
TTITLE6=Boom
TTITLE7=Onafa
TTITLE8=Karrierelatte
TTITLE9=BeatsUndReime
TTITLE10=Stinkemu
TTITLE11=Die feinen Herren
TTITLE12=Scheibe
TTITLE13=Gutsherr
TTITLE14="Track 14"
TTITLE15=RocknRoll
TTITLE16=IchHoch4
TTITLE17=Wildstyle
TTITLE18=Schreianfall
TTITLE19=Majuskel
TTITLE20=Outro
EXTD=
EXTT0=
EXTT1=
EXTT2=
EXTT3=
EXTT4=
EXTT5=
EXTT6=
EXTT7=
EXTT8=
EXTT9=
EXTT10=
EXTT11=
EXTT12=
EXTT13=
EXTT14=
EXTT15=
EXTT16=
EXTT17=
EXTT18=
EXTT19=
EXTT20=
PLAYORDER=
